/* XPM */
static char *result[] = {
/* columns rows colors chars-per-pixel */
"16 16 155 2 ",
"   c #9C5F3A",
".  c #B1693F",
"X  c #B97140",
"o  c #BD7241",
"O  c #BD7C45",
"+  c #C67B43",
"@  c #C77C44",
"#  c #BD8A5B",
"$  c #CC8045",
"%  c #CC8245",
"&  c #CC8347",
"*  c #C98445",
"=  c #CB8545",
"-  c #CC8645",
";  c #CC8546",
":  c #CF8446",
">  c #CD8646",
",  c #CD8746",
"<  c #CE8746",
"1  c #CF8746",
"2  c #C8894F",
"3  c #D38B47",
"4  c #D98C48",
"5  c #D98F49",
"6  c #DC9249",
"7  c #DD934A",
"8  c #DF934A",
"9  c #DF954B",
"0  c #C58953",
"q  c #CF8855",
"w  c #D18A54",
"e  c #E0934B",
"r  c #E0954B",
"t  c #E1954B",
"y  c #E2954B",
"u  c #E1964B",
"i  c #E2964B",
"p  c #E2974C",
"a  c #E3974C",
"s  c #E4984C",
"d  c #E5984C",
"f  c #E5994C",
"g  c #E6984C",
"h  c #E69A4C",
"j  c #E79A4D",
"k  c #E99A4D",
"l  c #E89B4D",
"z  c #E99C4E",
"x  c #EA9C4E",
"c  c #EA9D4E",
"v  c #EB9D4E",
"b  c #EC9E4E",
"n  c #EE9F4F",
"m  c #E39C56",
"M  c #E69E54",
"N  c #EEA04E",
"B  c #EEA04F",
"V  c #EFA04F",
"C  c #EFA14F",
"Z  c #F0A14F",
"A  c #F1A14F",
"S  c #ECA051",
"D  c #EEA151",
"F  c #E9A054",
"G  c #EEA659",
"H  c #F2A250",
"J  c #F2A350",
"K  c #F4A450",
"L  c #F5A450",
"P  c #F4A551",
"I  c #F5A551",
"U  c #F6A651",
"Y  c #F7A651",
"T  c #F5A553",
"R  c #F5A653",
"E  c #F6A752",
"W  c #F7A753",
"Q  c #F6A856",
"!  c #F2A759",
"~  c #F3AA5B",
"^  c #F7AC5A",
"/  c #F8AE5F",
"(  c #CA906B",
")  c #C8967C",
"_  c #DEA467",
"`  c #D9A67D",
"'  c #EBAB65",
"]  c #EDAB66",
"[  c #EBAC66",
"{  c #E7AB69",
"}  c #F0AA60",
"|  c #F3AC60",
" . c #F1AE66",
".. c #F6B267",
"X. c #F8B264",
"o. c #F8B265",
"O. c #F8B467",
"+. c #F2B168",
"@. c #F5B368",
"#. c #F8B468",
"$. c #F8B56A",
"%. c #F9B66A",
"&. c #EDB370",
"*. c #EFB674",
"=. c #F3BA76",
"-. c #F9BA71",
";. c #F9BD76",
":. c #F2BB78",
">. c #FAC17A",
",. c #F9C27D",
"<. c #FAC37D",
"1. c #E3AD86",
"2. c #E8BC81",
"3. c #EFC88D",
"4. c #F6C584",
"5. c #F8C684",
"6. c #FAC785",
"7. c #FAC884",
"8. c #FBC985",
"9. c #FAC886",
"0. c #FBCA87",
"q. c #F5C98A",
"w. c #F2C98D",
"e. c #F3CC8F",
"r. c #FBCB89",
"t. c #FACC8A",
"y. c #FBCD8B",
"u. c #FACC8C",
"i. c #FBCC8C",
"p. c #FBCE8D",
"a. c #FACE8E",
"s. c #FBCF8F",
"d. c #EACF99",
"f. c #EACF9A",
"g. c #EED39C",
"h. c #FBD091",
"j. c #FBD192",
"k. c #FBD294",
"l. c #FCD597",
"z. c #F3D39A",
"x. c #FCD799",
"c. c #FCD99B",
"v. c #FCDA9D",
"b. c #FCDA9E",
"n. c #FCDB9E",
"m. c #FDDB9E",
"M. c #FCDB9F",
"N. c #FDE0A5",
"B. c #FDE0A6",
"V. c #FDE1A6",
"C. c #FDE2A7",
"Z. c #FDE3A8",
"A. c #FDE3A9",
"S. c #FDE4A9",
"D. c None",
/* pixels */
"D.D.D.D.D.;.U W o.^ 6.D.D.D.D.D.",
"D.D.D.t.k.M.X.r.E 9.u.a.h.D.D.D.",
"D.D.6 & ( ` | z.S 8 . ) 1.M D.D.",
"D.  u e q w _ w.1 A I T Y d ; D.",
"D.N 7 k $ g i.,.X x + @ o m { D.",
"B i 7 U Y #.B.$.: 8 ..*.5.e.3.7.",
"U s 3 f s G O.W v % 2.f.d.g.A.l.",
"U h c Y Y y A 4 g e p.A.A.S.A.j.",
"Y a n Y n Y Y Q ]  .=.C.A.A.Z.8.",
"U p Z z Y v j @.v.N.:.q.m.b.y.$.",
"U a Z C 5 > 0 # 2 4.c.[ %.J o.<.",
"D.j l h r H * O = < ' } >.D s.D.",
"D.P - V U c b Z K I 9 +./ &.v.D.",
"D.D., J b Y Y L R F B Y l ! D.D.",
"D.D.D.t U Y U Y -.x.9.~ v D.D.D.",
"D.D.D.D.D.U U U 0.V.n.D.D.D.D.D."
};
