/* XPM */
static char *d1052bcd64fa4473ab8da92831e0b607fuwnxZAtXjYoN8iR[] = {
/* columns rows colors chars-per-pixel */
"32 32 134 2 ",
"   c None",
".  c #864C35",
"X  c #884E36",
"o  c #8F5437",
"O  c #975A39",
"+  c #9F5A3A",
"@  c #A05C3A",
"#  c #A95B3B",
"$  c #9E613A",
"%  c #A3643B",
"&  c #AC623D",
"*  c #AB6B3D",
"=  c #B1673E",
"-  c #B46B3F",
";  c #B4733F",
":  c #B46942",
">  c #B96E40",
",  c #B67240",
"<  c #BB7541",
"1  c #B57846",
"2  c #BD7A42",
"3  c #BC7E56",
"4  c #BA7E67",
"5  c #C37D43",
"6  c #C97E44",
"7  c #BE836A",
"8  c #BF8E72",
"9  c #C78144",
"0  c #CC8546",
"q  c #C2814B",
"w  c #CE8948",
"e  c #D18546",
"r  c #D28A47",
"t  c #D58B49",
"y  c #DA8E49",
"u  c #DD924A",
"i  c #D79355",
"p  c #DD9651",
"a  c #DD9955",
"s  c #DD9D5C",
"d  c #E2964B",
"f  c #E5994D",
"g  c #EA9C4D",
"h  c #E09550",
"j  c #E49C53",
"k  c #EFA04F",
"l  c #F1A24F",
"z  c #EFA052",
"x  c #F6A651",
"c  c #F6A955",
"v  c #F7AC5B",
"b  c #F8AC5A",
"n  c #C99561",
"m  c #D39E66",
"M  c #D29F68",
"N  c #DB9D6F",
"B  c #D2A069",
"V  c #DAA76E",
"C  c #D9AF79",
"Z  c #EDAB62",
"A  c #E1AA6B",
"S  c #F3AD61",
"D  c #F7B164",
"F  c #F8B264",
"G  c #F3B46C",
"H  c #F8B66B",
"J  c #F9B96F",
"K  c #E0A376",
"L  c #E3B277",
"P  c #F9BC74",
"I  c #F1BD7B",
"U  c #FABF78",
"Y  c #FAC27D",
"T  c #D1B284",
"R  c #D9BC8B",
"E  c #D5B09C",
"W  c #E7BA80",
"Q  c #E5B38F",
"!  c #D8BBAA",
"~  c #DEC18F",
"^  c #F7C481",
"/  c #FAC681",
"(  c #FBC985",
")  c #F2C98C",
"_  c #FBCC8A",
"`  c #FBD08F",
"'  c #E6CA96",
"]  c #EEC990",
"[  c #EACE99",
"{  c #EED39D",
"}  c #EFD59E",
"|  c #ECD19B",
" . c #FBD191",
".. c #FBD291",
"X. c #FBD292",
"o. c #FCD292",
"O. c #FBD394",
"+. c #FBD495",
"@. c #FCD597",
"#. c #FBD293",
"$. c #F1D79F",
"%. c #F8D79B",
"&. c #FCD698",
"*. c #FCD799",
"=. c #FCD99B",
"-. c #FCD99C",
";. c #FCDA9D",
":. c #FDDA9D",
">. c #FCDB9E",
",. c #FCDB9F",
"<. c #FCDC9F",
"1. c #FDDC9F",
"2. c #FCDA9C",
"3. c #F5DBA3",
"4. c #FDDDA1",
"5. c #FDDEA2",
"6. c #FDDEA3",
"7. c #FDDFA4",
"8. c #FDDEA2",
"9. c #FDE0A4",
"0. c #FCE0A5",
"q. c #FDE0A5",
"w. c #FDE1A6",
"e. c #FDE1A7",
"r. c #FDE2A6",
"t. c #FDE2A7",
"y. c #FDE1A6",
"u. c #FDE2A8",
"i. c #FDE3A8",
"p. c #FDE3A9",
"a. c #FDE4A9",
"s. c #FDE3A9",
"d. c #F1D3C0",
"f. c #FAD9C1",
/* pixels */
"                        x x x c U P b x                         ",
"                  7._ H x x x x x x c F ( o.e.                  ",
"              p.p.p.p.%.H c Y P x x H >.e.e.p.a.p.              ",
"            ( U P ^ -.;.U c >.o.x x U o.U x D P Y o.            ",
"          d u 0 0 0 i G U c e.=.b x d r 5 & : 3 q f F           ",
"        9 f t : 7 E ! 8 f v ' ] c 0 f d : # 4 d.f.Q 0 g         ",
"      . r x y e e K N p 5 V } L ; d x x x k k c x x x r f       ",
"    0 o 2 x x u e > # t f ) e.H , f g g x x x x x x f d 2 <     ",
"    x y 5 x x x k - ; l D *.6.b = 5 x 6 0 t u y e < : l t H     ",
"  2 x l 5 c f 0 - e l x Y e.o.x 6 + x x 5 # : & & > f P M Y ^   ",
"  d f k ; x x x x x x H 7.p.( x d + u x x k f j S H Y ( B Y /   ",
"  x 0 f 9 x x x x x x ( 7.6.P x k < : k H ( ( o.@.6.p.R 3.6._   ",
"x x x 9 ; x x x x d r P Y U c x f y = 0 B C ' | [ ~ T [ p.p.;.( ",
"x x x u 9 r w t t g x x x l x x x x y e Y %.} [ [ 3.p.p.p.p.e./ ",
"x x x y u x x x x x g y x x g u f x g 6 U 6.p.p.a.p.p.p.p.p.e.Y ",
"x x x t u x x x x x l e d x t 5 6 x f f P >.a.p.p.p.a.a.p.p.<.Y ",
"x x x w f x x x k l x x x x x l d y t x G ) i.i.i.i.p.p.p.p.X.Y ",
"x x x 0 f x x x u x x x x x x D U U P W v Y <.i.i.i.p.p.p.r.( Y ",
"x x x 0 k x x u x x x x x x P Y e.a.a.*.Y a _ r.i.p.p.p.r._ ^ H ",
"x x x 9 f x x u x x k t u r k v / 6.p.p.&.G V ( @.O.X.X./ P v x ",
"  x x w f x f l x 9 % $ . . . * u J  .6.e. .a Y Y Y x l l F P   ",
"  x x w k x k x u 0 k k k Y L n O % j U *.@.J p b x k z x ( `   ",
"  x x t f x x k * x x f ; % 1 9 < o O 0 H / J j / J x f D >.a.  ",
"    x u 0 x x ; u x x x g t 2 5 u x x w 2 c c Z / P x z ( a.    ",
"    x x ; u x x x x x x x x x x x x x x r r b / Y c k I 0.r.    ",
"      x 2 u u k x l d u d d d l x k x x x d j F x x p +.`       ",
"        g 1 x x l d x x x x x l k z u u x x x x x d f H         ",
"          2 f x l x x x x x x x x b S v u k x x u k x           ",
"            , x x x x x x x x x x Y / ` Y S x l f x             ",
"              x x x x x x x x x F _ e.a.e._ U g f               ",
"                  c x x x x x x Y =.a.a.a.o.J                   ",
"                        x x x l Y _ <.e.                        "
};
