/* XPM */
static char *ba72a5160f80429bb47b8898299041b1nvg0Lwtw5eD3ZGmu[] = {
/* columns rows colors chars-per-pixel */
"16 16 155 2 ",
"   c None",
".  c #9C5F3A",
"X  c #B1693F",
"o  c #B97140",
"O  c #BD7241",
"+  c #BD7C45",
"@  c #C67B43",
"#  c #C77C44",
"$  c #BD8A5B",
"%  c #CC8045",
"&  c #CC8245",
"*  c #CC8347",
"=  c #C98445",
"-  c #CB8545",
";  c #CC8645",
":  c #CC8546",
">  c #CF8446",
",  c #CD8646",
"<  c #CD8746",
"1  c #CE8746",
"2  c #CF8746",
"3  c #C8894F",
"4  c #D38B47",
"5  c #D98C48",
"6  c #D98F49",
"7  c #DC9249",
"8  c #DD934A",
"9  c #DF934A",
"0  c #DF954B",
"q  c #C58953",
"w  c #CF8855",
"e  c #D18A54",
"r  c #E0934B",
"t  c #E0954B",
"y  c #E1954B",
"u  c #E2954B",
"i  c #E1964B",
"p  c #E2964B",
"a  c #E2974C",
"s  c #E3974C",
"d  c #E4984C",
"f  c #E5984C",
"g  c #E5994C",
"h  c #E6984C",
"j  c #E69A4C",
"k  c #E79A4D",
"l  c #E99A4D",
"z  c #E89B4D",
"x  c #E99C4E",
"c  c #EA9C4E",
"v  c #EA9D4E",
"b  c #EB9D4E",
"n  c #EC9E4E",
"m  c #EE9F4F",
"M  c #E39C56",
"N  c #E69E54",
"B  c #EEA04E",
"V  c #EEA04F",
"C  c #EFA04F",
"Z  c #EFA14F",
"A  c #F0A14F",
"S  c #F1A14F",
"D  c #ECA051",
"F  c #EEA151",
"G  c #E9A054",
"H  c #EEA659",
"J  c #F2A250",
"K  c #F2A350",
"L  c #F4A450",
"P  c #F5A450",
"I  c #F4A551",
"U  c #F5A551",
"Y  c #F6A651",
"T  c #F7A651",
"R  c #F5A553",
"E  c #F5A653",
"W  c #F6A752",
"Q  c #F7A753",
"!  c #F6A856",
"~  c #F2A759",
"^  c #F3AA5B",
"/  c #F7AC5A",
"(  c #F8AE5F",
")  c #CA906B",
"_  c #C8967C",
"`  c #DEA467",
"'  c #D9A67D",
"]  c #EBAB65",
"[  c #EDAB66",
"{  c #EBAC66",
"}  c #E7AB69",
"|  c #F0AA60",
" . c #F3AC60",
".. c #F1AE66",
"X. c #F6B267",
"o. c #F8B264",
"O. c #F8B265",
"+. c #F8B467",
"@. c #F2B168",
"#. c #F5B368",
"$. c #F8B468",
"%. c #F8B56A",
"&. c #F9B66A",
"*. c #EDB370",
"=. c #EFB674",
"-. c #F3BA76",
";. c #F9BA71",
":. c #F9BD76",
">. c #F2BB78",
",. c #FAC17A",
"<. c #F9C27D",
"1. c #FAC37D",
"2. c #E3AD86",
"3. c #E8BC81",
"4. c #EFC88D",
"5. c #F6C584",
"6. c #F8C684",
"7. c #FAC785",
"8. c #FAC884",
"9. c #FBC985",
"0. c #FAC886",
"q. c #FBCA87",
"w. c #F5C98A",
"e. c #F2C98D",
"r. c #F3CC8F",
"t. c #FBCB89",
"y. c #FACC8A",
"u. c #FBCD8B",
"i. c #FACC8C",
"p. c #FBCC8C",
"a. c #FBCE8D",
"s. c #FACE8E",
"d. c #FBCF8F",
"f. c #EACF99",
"g. c #EACF9A",
"h. c #EED39C",
"j. c #FBD091",
"k. c #FBD192",
"l. c #FBD294",
"z. c #FCD597",
"x. c #F3D39A",
"c. c #FCD799",
"v. c #FCD99B",
"b. c #FCDA9D",
"n. c #FCDA9E",
"m. c #FCDB9E",
"M. c #FDDB9E",
"N. c #FCDB9F",
"B. c #FDE0A5",
"V. c #FDE0A6",
"C. c #FDE1A6",
"Z. c #FDE2A7",
"A. c #FDE3A8",
"S. c #FDE3A9",
"D. c #FDE4A9",
/* pixels */
"          :.T T O./ 5.          ",
"      y.l.N.X.t.Q 0.i.p.k.      ",
"    7 * ) '  .x.D 0 X _ 2.N     ",
"  . i r w e ` e.2 S T T T j :   ",
"  B 7 x # x p.<.o v @ @ O M }   ",
"B i 7 T T $.V.%.> 7 @.=.5.r.e.0.",
"T d 4 j f H $.T b * 3.h.g.h.S.z.",
"T j v T T u S 5 h r p.S.S.S.S.k.",
"T j b T D T T ! [ ..-.V.D.D.D.0.",
"T u S x T v j #.v.B.>.e.N.v.u.%.",
"T u C S 6 : q $ 3 6.v.{ &.S O.1.",
"  j x j i L = + : : [ ^ ,.D j.  ",
"  T = D T v v B T T 0 @.( *.v.  ",
"    : T v T T T T G b T v ^     ",
"      i T T I T ;.z.t.^ b       ",
"          T T T t.Z.v.          "
};
