/* XPM */
static char *d22dd644ce6242079c5ecdc38db97e55iM451EqjJu6n0Eaa[] = {
/* columns rows colors chars-per-pixel */
"64 64 162 2 ",
"   c None",
".  c #814735",
"X  c #854B35",
"o  c #894F36",
"O  c #914E33",
"+  c #8D5137",
"@  c #915437",
"#  c #925438",
"$  c #995739",
"%  c #955938",
"&  c #9B5E39",
"*  c #A35C3B",
"=  c #A95C3C",
"-  c #9E613B",
";  c #A2643C",
":  c #AC613D",
">  c #A7683C",
",  c #AB6B3E",
"<  c #B1663E",
"1  c #B56B3F",
"2  c #B96E3F",
"3  c #B2713F",
"4  c #9F6343",
"5  c #9D6A54",
"6  c #AC6042",
"7  c #B16641",
"8  c #B46B46",
"9  c #B96F41",
"0  c #B16A4F",
"q  c #A3714E",
"w  c #AB774E",
"e  c #B67440",
"r  c #BB7341",
"t  c #BD7A42",
"y  c #A67A57",
"u  c #A3725D",
"i  c #A97F5D",
"p  c #B77556",
"a  c #B37E52",
"s  c #B4775B",
"d  c #A97D68",
"f  c #C07641",
"g  c #C37C43",
"h  c #C97E44",
"j  c #C37948",
"k  c #AA815E",
"l  c #B78254",
"z  c #BC8150",
"x  c #B08064",
"c  c #B6916A",
"v  c #C68144",
"b  c #CC8445",
"n  c #CF8846",
"m  c #C3854C",
"M  c #CC864A",
"N  c #CE8A4B",
"B  c #D28647",
"V  c #D38A47",
"C  c #D98C47",
"Z  c #D0864C",
"A  c #D58C48",
"S  c #D98E48",
"D  c #DC9149",
"F  c #C28B57",
"G  c #C28F5E",
"H  c #C6915E",
"J  c #D39150",
"K  c #D89554",
"L  c #DF9B56",
"P  c #D49659",
"I  c #DD9E5E",
"U  c #E1954B",
"Y  c #E6994C",
"T  c #EB9D4D",
"R  c #E79A51",
"E  c #EB9F54",
"W  c #EFA04F",
"Q  c #F3A34F",
"!  c #EBA051",
"~  c #E5A35C",
"^  c #EBA55C",
"/  c #F6A651",
"(  c #F8A751",
")  c #F7A955",
"_  c #F7AD5B",
"`  c #F8AE5C",
"'  c #F8B05F",
"]  c #C59767",
"[  c #C4996A",
"{  c #D49D63",
"}  c #C19F75",
"|  c #D7A46B",
" . c #DFAA6F",
".. c #C5A57A",
"X. c #CCAB7F",
"o. c #E3AB6C",
"O. c #F6AE61",
"+. c #F7B162",
"@. c #F8B263",
"#. c #F8B569",
"$. c #F9B96E",
"%. c #E7B273",
"&. c #EDB775",
"*. c #EAB778",
"=. c #ECBA7B",
"-. c #F6BB74",
";. c #F9BC73",
":. c #F1BD7B",
">. c #F9BF78",
",. c #FAC077",
"<. c #F6C37F",
"1. c #FAC37D",
"2. c #B69180",
"3. c #B99685",
"4. c #C89781",
"5. c #CDAE80",
"6. c #D3B484",
"7. c #D7BB8A",
"8. c #DABD8C",
"9. c #ECB58B",
"0. c #F8B982",
"q. c #F9BE8C",
"w. c #D4B5A2",
"e. c #DDB6A3",
"r. c #DDB8A4",
"t. c #F7C683",
"y. c #FAC682",
"u. c #FBC885",
"i. c #F7CD8E",
"p. c #FBCD8B",
"a. c #FBD08F",
"s. c #E3C693",
"d. c #E5C995",
"f. c #F9C496",
"g. c #EFD49E",
"h. c #FCD394",
"j. c #FCD799",
"k. c #FCDA9C",
"l. c #FACAA4",
"z. c #F4DAA2",
"x. c #FDDCA0",
"c. c #FDDFA3",
"v. c #FDDFA4",
"b. c #FDDEA2",
"n. c #E3C7B4",
"m. c #E3C8B7",
"M. c #EED0BD",
"N. c #FBD7BC",
"B. c #FDE0A5",
"V. c #FDE1A6",
"C. c #FDE2A7",
"Z. c #FDE1A5",
"A. c #FDE3A9",
"S. c #FDE3A8",
"D. c #FEE3A9",
"F. c #FDE4A9",
"G. c #FDE4AA",
"H. c #FDE3A9",
"J. c #F6DDCB",
"K. c #FBDFC9",
"L. c #FBE3D1",
"P. c #FCE4D2",
/* pixels */
"                                                    / / / / / @.y.t.1.,.;._                                                     ",
"                                            / / / ( / / / / / / _ ;.;.$.` / / / ( /                                             ",
"                                        y.,.#.( / / / ( / / / / ( ( / ( / / / ) #.;.>.,.                                        ",
"                                  A.F.F.b.u.y.;./ / / / / / / / ( / / / / / ;.,.p.V.F.F.F.F.A.                                  ",
"                                F.A.A.A.A.A.h.t.>.( / / $.1.1._ / / ( / / ;.t.k.A.A.A.A.A.A.A.A.                                ",
"                            A.F.F.F.A.A.A.G.G.j.1.` / ` y.p.y.#./ / / ( ` y.v.F.A.A.V.b.V.A.A.A.F.A.                            ",
"                          j.h.p.p.a.j.k.V.A.A.v.1.@./ O.p.A.k.>./ / / / #.p.A.b.h.u.` ) @.y.p.a.j.j.B.                          ",
"                      y.1.;.` / / ( ( @.t.j.j.a.y.;./ ` j.A.A.y._ / / ( _ y.u.;.( Q ( Q Q Q / ( / _ 1.a.h.                      ",
"                    / Q ( / W Y U S V B U >.y.1.1.;.Q _ b.A.A.p.` / / / / ( ( ( W b 9 h h h B h C Y Q _ ;.u.                    ",
"                  Y D v t , > > > 1 g v h 2 S #.,.$./ ` b.A.F.p.O./ / / S t > & $ o # O O O u d u 4 2 Y Q Q _                   ",
"                & 3 v D U Z j 8 8 p s w.3.5 @ b / ) / $.V.A.F.h.` / T > t U Y 9 7 = = = e.0 e.P.P.J.n.2., T / /                 ",
"              o t / / / R 9 = = 6 e.4.L.L.L.n.s e / Q  .5...6.=.) / , D / / / Y j 7 = = = = J.K.N.l.q.#.Y , h ( /               ",
"              X , ( / / D / R Z Z Z 9.l.f.0.O./ b ; ; [ 8.d.6.l ; e t ( / / / / / / E R Y E O.( ( Q ( / / / v , /               ",
"            X X & Q / / U < 2 B V V B g r 1 : D / - _ k.H.H.a.$.U o D / / / / ( / / / / / / / / ( ( ( ( / / ( V , /             ",
"          X X X o D / / ( T b 1 = : : : = : : T / t o.k.H.H.u.) S # U / / V / ( / / / / / / / / / / Q / / / Y T t t >           ",
"          U > X o Q / ( ( / ( ( / Y B : : : r / / D *.B.H.c.,./ h # f ( / Y h Q / / / / / / / / / ( / / T v 1 / T + e           ",
"        / / / % X W Q Q ( ( ( ( ( / C = : : U ( / @.u.A.A.j.#./ f $ * W / / g r U Q Q / ( ( / ( Q Y V 9 : : D / / > / /         ",
"      T / / / n X Y ( ( Q ( Q Q / b : : : S / / / >.h.A.A.h.) / h * $ B / ( W < = : < 1 r g g 9 < : : : = f / / ^ w y.y.p.      ",
"      t / / / T X Y ( ( ( ( Q U f : = r T / / / ` 1.b.A.H.y./ / C = O 9 / / / Y < : : = = < : : : : : : 9 / ) ,.&.a ,.,.1.      ",
"      ; / / / W X Y ( Q U f : : : 2 D / / / / / ,.j.A.A.A.>./ / T : # * T / / / T f : : : : : : : = 9 V / ) 1.1.o.H y.y.1.      ",
"    / 3 Y / / T . T Q ( / / Q Q W / / ( / / / #.a.A.A.A.v.#./ / ( r = + V / / / ( / T S B h h n C T ( _ ,.1.1.y.H o.1.1.1.1.    ",
"    / D 3 / / Y . T Q ( / / / / / / / / / / _ p.A.A.F.A.k.O./ / / U = $ 3 / / ( / ( ) ) ) _ ` @.#.,.1.y.1.u.p.p.q t.y.y.y.y.    ",
"  / / / e A / Y . T / / / / / ( / / / ( ( ( 1.h.A.A.A.A.p._ / / ( ( g 6 # D ( ( ( ;.u.u.y.u.t.y.u.u.p.k.F.F.F.6.X.H.V.p.u.y.y.  ",
"  / / / / > D D X W / / / / / / / ( / / / O.t.t.k.A.A.h.1./ / / / S C : = $ V ( ` u.t.u.y.a.k.b.V.F.A.F.F.F.d.i Z.H.A.F.b.u.y.  ",
"  ( / / / W , , o W / / / / / / ( ( / / W m <.u.u.u.y.u.$.( / / S B f = : 2 e , I <.y.h.F.F.A.A.H.H.G.G.z.X.k z.H.H.A.H.H.i.u.  ",
"  / ( / / / / 3 o n W / / / ( ( / T A 3 > S ` #.;.;.#.@./ / / / ( ( / T 2 : U T ] k y c ..6.7.8.7.6.} k k 6.Z.H.H.A.A.H.H.k.y.  ",
"/ / / / / / / v % v > ; , , 3 , - 3 b Y / / / ( / / / / / / / ( ( / / / T < r / y.t.i.g.s.8.6.6.6.8.d.z.H.H.H.H.H.H.H.H.F.b.u.u.",
"/ / / / / / / t > ( ( ( W T T Q / / / / / / / / / / / / / / / ( / / / / ( b = Y 1.1.j.A.A.A.A.A.H.H.H.H.H.H.H.H.H.H.H.H.F.V.y.1.",
"/ / / / / / / 3 3 ( / / / / / / / / / / / W T ( / / / ( / / ( ( / / / / ( C : B ,.y.j.A.A.A.H.H.H.H.H.H.H.H.H.H.A.A.H.A.A.V.1.1.",
"/ / / / / / / > t ( / / / / / / / / / / / V : b / / / / Y V h g B U Q / / U 1 E -.1.j.A.H.H.H.H.H.H.H.H.H.H.H.H.A.A.A.A.A.b.1.,.",
"/ / / / / / ( ; z / / / / / / / / / / / / U : = 3 T ( / f < = = = < Y / / U h / @.1.k.H.H.H.H.H.H.H.H.H.H.H.H.H.A.A.A.A.A.j.1.,.",
"/ / / / / / / - v / / / / / / / / ( / / / / Q T Y T ( Q Q T C h h Y / / / h S / ` t.p.H.H.H.H.H.H.H.H.H.H.H.H.A.H.A.A.A.A.h.y.1.",
"/ / / / / / Q - n / / / / / / / / Q Y Q / ( ( Q ( / / / / ( W W C f 9 f 7 9 Q / ) <.y.k.F.F.F.A.A.A.A.F.F.A.F.A.A.A.A.A.A.y.y.1.",
"/ / / / / / / % n / / / / / / / / A Q ( / / ( / / / / ( / ( ( ( / / ( Q Q / / / Q %.y.u.A.F.A.F.A.A.A.A.A.A.A.A.A.A.A.A.j.y.y.1.",
"/ / / / / / Q % V / / / / / / / A Y ( / / / / / / / Q ( ( Q ( ) $.;.;.#.O.$.;.>.+.P y.u.k.A.A.A.A.A.A.A.A.A.A.A.A.A.A.F.u.u.t.,.",
"/ / / / / / / % V / / / / / Q W v ( ( Q ( / / ( Q ( ( / ( ( $.1.u.u.y.u.u.y.u.u.>.W | u.p.F.A.F.A.A.A.A.A.A.F.A.A.F.F.k.u.u.t.;.",
"/ / / / / / / @ S / / / / / / v / ( / / / ( / / ( ( ( / ) 1.<.1.b.A.A.A.A.v.p.u.1._ A :.y.j.F.F.F.A.A.A.A.A.A.A.F.F.k.u.u.u.y.) ",
"/ / / / / / / @ S / / / / / ! v / ( / / ( ( / / / / ( / $.,.<.u.b.A.A.A.A.A.A.v.p.,.Q z y.y.k.F.A.A.A.A.A.A.A.F.F.B.p.u.y.1.` ( ",
"  / / / / / Q @ D / / / / / t / / / ( / ( ( ( ( ( ( / / Q / ( #.y.j.A.A.A.A.A.A.B.1.$.D { y.y.j.b.B.b.V.b.b.b.k.h.y.u.1.>.) (   ",
"  / / / / / Q @ D / / / / W v ( / ( / / W v ; ; v 3 % - v W ( / O.y.p.b.A.A.A.A.F.j.u.@.t :.1.y.y.y.1.y.y.1.y.1.,.$.@.) Q / /   ",
"  ( / / / / / % D ( ( / ( D D ( ( / ( n % X X X X X X X X X 3 D / ) ,.p.j.S.S.H.H.H.k.<.W F 1.1.1.1.1.1.' W Q ( ( Q ( ( ` @./   ",
"  ( / ) / / / + A / / / / n / / / / 3 + 3 v t > + X X X X o X X & B Q +.1.p.h.Z.H.H.F.y.@.v :.y.1.1.<.' Q Y Q / ( ( +.y.1.<.y.  ",
"    ( ( ) Q Q % A ( / / / S / / / A X D ( ( ( / Q W ! %.K t - X X X % V / #.1.p.V.F.F.u.1.! M ' @.@.( / ( T T ( / ( ,.1.1.<.    ",
"    ( ( / / Q - S / / / / ! / / W + 3 ( ! D Y ! W W $.k.Z.x.h.~ e o X X > W / ;.1.h.k.y.y.) t / ( ) ( Q ( W Y ( ( ) 1.k.F.j.    ",
"      ( / / / - A ( / / ( / ( ( 3 % W ( Q Y A A b % > z J L ^ ! T D & X X @ D / @.y.y.u.u._ n / 1.u.1.( / T D / ( @.p.A.F.      ",
"      ( / / / - n Q / / / / ( A X n / / ( ( ( ( W o X X X X X . X X X + e + X v / #.y.u.1./ D ^ u.1.u.@./ W S / ) ,.h.F.F.      ",
"      ( / / ( , v W / ( / / V + - Q / / ( ( ( / / t t ; X X . + > n T / / W v + 3 / _ +.` / T %.u.u.u.' ( / S / >.u.V.F.F.      ",
"        / / / v - V W ( ( W 3 3 Y ( / ( / Q ( / / / / / W A Y Q ( ( ( / / / / Y ; ; T / / / ^ =.u.p.y.) / ! V $.u.k.F.F.        ",
"          / / Y X D n / / / / / / ( / / / / / / / / / / / / / / ( ( ( / / / Q Q / t % Y / ) =.u.u.u.@.( ( Y I <.k.F.F.          ",
"          / / / - z v D Q / / / / / / / / / / / / / / / / / / / Q ( Q / / / ( W n t n W / ,.y.y.1.' ( ( ( A &.p.F.F.B.          ",
"            / ( n + W V v v / / ( / ( / / / Q Q / / / / / / / / ( ( / / / / / / / / A t Y $.1.;./ ( Q ( ( z <.S.B.a.            ",
"              ( Q @ v / / Q D / ( Q ( Y t t v v v v v v v n Y / ( W Y U Q / / / / / / / A S Q Q / Q ( ( Y P u.k.u.              ",
"              ( ( v + W / / W / ( / V n Q / / / / / / / ( / Y U ! Q Q Y v z W Q / / / / / / / / / / ( W 3 ) 1.1.>.              ",
"                ( W @ g / / / / Q V Y ( / / / / / / / / / / / / / / ( ( / Q g n / / / / / / / / / / W 3 W ( ( (                 ",
"                  ( b + W / / / T Y / ( ( / / / / / / / / / / ( / / Q ( / / ( D t W / / / / / / / A t W / / (                   ",
"                    Q - 3 / / / Y ( / / / / / / / / / / / / / / / / ) #.#.$.#.@./ n A W / / / / v D ( / / (                     ",
"                      v o Y / / / / / / / / / ( / / ( / / / / / / / ,.u.u.u.u.u.>.@./ T / / / W b / / / /                       ",
"                          3 / / / / / ( / / / ( / / / / / ( / / ( ( 1.u.1.p.h.a.u.y.>.$.) / / W n / /                           ",
"                            W / / / / / / / / / / / / / / / / / / #.y.u.j.F.F.F.F.b.u.t.y.@.( T S /                             ",
"                                ( / / / / / / / / / / / / / / / ) <.<.h.F.F.F.F.F.F.k.y.y.$./ h                                 ",
"                                  / / / / / / / / / / / / / / / $.1.u.V.F.A.A.A.A.A.V.1.1.` Y                                   ",
"                                        / / ( / / / / / / / / / 1.1.h.F.F.F.A.A.A.A.j.y.                                        ",
"                                            / / / / / / / / / / ,.1.u.j.V.V.A.A.V.b.                                            ",
"                                                    / / / / / ( ;.y.1.p.a.h.                                                    "
};
