/* XPM */
static char *result[] = {
/* columns rows colors chars-per-pixel */
"64 64 150 2 ",
"   c #814735",
".  c #854B35",
"X  c #894F36",
"o  c #914E33",
"O  c #8D5137",
"+  c #915437",
"@  c #925438",
"#  c #995739",
"$  c #955938",
"%  c #9B5E39",
"&  c #A35C3B",
"*  c #A95C3C",
"=  c #9E613B",
"-  c #A2643C",
";  c #AC613D",
":  c #A7683C",
">  c #AB6B3E",
",  c #B1663E",
"<  c #B56B3F",
"1  c #B96E3F",
"2  c #B2713F",
"3  c #9F6343",
"4  c #9D6A54",
"5  c #AC6042",
"6  c #B16641",
"7  c #B46B46",
"8  c #B96F41",
"9  c #B16A4F",
"0  c #A3714E",
"q  c #AB774E",
"w  c #B67440",
"e  c #BB7341",
"r  c #BD7A42",
"t  c #A67A57",
"y  c #A3725D",
"u  c #A97F5D",
"i  c #B77556",
"p  c #B37E52",
"a  c #B4775B",
"s  c #A97D68",
"d  c #C07641",
"f  c #C37C43",
"g  c #C97E44",
"h  c #C37948",
"j  c #AA815E",
"k  c #B78254",
"l  c #BC8150",
"z  c #B08064",
"x  c #B6916A",
"c  c #C68144",
"v  c #CC8445",
"b  c #CF8846",
"n  c #C3854C",
"m  c #CC864A",
"M  c #CE8A4B",
"N  c #D28647",
"B  c #D38A47",
"V  c #D98C47",
"C  c #D0864C",
"Z  c #D58C48",
"A  c #D98E48",
"S  c #DC9149",
"D  c #C28B57",
"F  c #C28F5E",
"G  c #C6915E",
"H  c #D39150",
"J  c #D89554",
"K  c #DF9B56",
"L  c #D49659",
"P  c #DD9E5E",
"I  c #E1954B",
"U  c #E6994C",
"Y  c #EB9D4D",
"T  c #E79A51",
"R  c #EB9F54",
"E  c #EFA04F",
"W  c #F3A34F",
"Q  c #EBA051",
"!  c #E5A35C",
"~  c #EBA55C",
"^  c #F6A651",
"/  c #F8A751",
"(  c #F7A955",
")  c #F7AD5B",
"_  c #F8AE5C",
"`  c #F8B05F",
"'  c #C59767",
"]  c #C4996A",
"[  c #D49D63",
"{  c #C19F75",
"}  c #D7A46B",
"|  c #DFAA6F",
" . c #C5A57A",
".. c #CCAB7F",
"X. c #E3AB6C",
"o. c #F6AE61",
"O. c #F7B162",
"+. c #F8B263",
"@. c #F8B569",
"#. c #F9B96E",
"$. c #E7B273",
"%. c #EDB775",
"&. c #EAB778",
"*. c #ECBA7B",
"=. c #F6BB74",
"-. c #F9BC73",
";. c #F1BD7B",
":. c #F9BF78",
">. c #FAC077",
",. c #F6C37F",
"<. c #FAC37D",
"1. c #B69180",
"2. c #B99685",
"3. c #C89781",
"4. c #CDAE80",
"5. c #D3B484",
"6. c #D7BB8A",
"7. c #DABD8C",
"8. c #ECB58B",
"9. c #F8B982",
"0. c #F9BE8C",
"q. c #D4B5A2",
"w. c #DDB6A3",
"e. c #DDB8A4",
"r. c #F7C683",
"t. c #FAC682",
"y. c #FBC885",
"u. c #F7CD8E",
"i. c #FBCD8B",
"p. c #FBD08F",
"a. c #E3C693",
"s. c #E5C995",
"d. c #F9C496",
"f. c #EFD49E",
"g. c #FCD394",
"h. c #FCD799",
"j. c #FCDA9C",
"k. c #FACAA4",
"l. c #F4DAA2",
"z. c #FDDEA2",
"x. c #E3C7B4",
"c. c #E3C8B7",
"v. c #EED0BD",
"b. c #FBD7BC",
"n. c #FDE1A5",
"m. c #FDE3A9",
"M. c #F6DDCB",
"N. c #FBDFC9",
"B. c #FBE3D1",
"V. c None",
/* pixels */
"V.V.V.V.V.V.V.V.V.V.V.V.V.V.V.V.V.V.V.V.V.V.V.V.V.V.^ ^ ^ ^ ^ +.t.y.<.<.-.( V.V.V.V.V.V.V.V.V.V.V.V.V.V.V.V.V.V.V.V.V.V.V.V.V.V.",
"V.V.V.V.V.V.V.V.V.V.V.V.V.V.V.V.V.V.V.V.V.V.^ ^ ^ / ^ ^ ^ ^ ^ ^ ) -.-.#._ ^ ^ ^ ^ ^ V.V.V.V.V.V.V.V.V.V.V.V.V.V.V.V.V.V.V.V.V.V.",
"V.V.V.V.V.V.V.V.V.V.V.V.V.V.V.V.V.V.V.V.<.>.@./ ^ ^ ^ ^ ^ ^ ^ ^ W / ^ / ^ ^ ^ ( @.-.:.<.V.V.V.V.V.V.V.V.V.V.V.V.V.V.V.V.V.V.V.V.",
"V.V.V.V.V.V.V.V.V.V.V.V.V.V.V.V.V.m.m.m.z.i.t.-.^ ^ ^ / ^ ^ ^ ^ / / ^ ^ ^ ^ #.<.i.z.m.m.m.m.m.V.V.V.V.V.V.V.V.V.V.V.V.V.V.V.V.V.",
"V.V.V.V.V.V.V.V.V.V.V.V.V.V.V.V.m.m.m.m.m.m.g.y.:./ ^ ^ #.<.<.) ^ ^ ^ / ^ -.y.j.m.m.m.m.m.m.m.m.V.V.V.V.V.V.V.V.V.V.V.V.V.V.V.V.",
"V.V.V.V.V.V.V.V.V.V.V.V.V.V.m.m.m.m.m.m.m.m.m.j.<._ ^ _ <.i.t.@.^ ^ ^ ^ _ t.z.m.m.m.z.z.z.m.m.m.m.m.V.V.V.V.V.V.V.V.V.V.V.V.V.V.",
"V.V.V.V.V.V.V.V.V.V.V.V.V.g.g.i.i.p.h.j.z.m.m.z.<.@.^ o.i.m.j.:.^ ^ ^ ^ @.i.m.z.g.y.) ( @.<.i.p.j.j.z.V.V.V.V.V.V.V.V.V.V.V.V.V.",
"V.V.V.V.V.V.V.V.V.V.V.y.<.-.` ^ ^ / / +.y.h.g.g.<.-.^ _ j.m.m.t.) ^ ^ ^ ) t.y.-./ W ^ ^ W ^ ^ / ^ ) <.i.g.V.V.V.V.V.V.V.V.V.V.V.",
"V.V.V.V.V.V.V.V.V.V.^ W / ^ E U S A Z N I :.<.<.<.-.^ ( z.m.m.i._ ^ ^ ^ ^ ^ ^ / Y v 8 f g g N g Z Y W ( -.y.V.V.V.V.V.V.V.V.V.V.",
"V.V.V.V.V.V.V.V.V.U S c r > - : 5 8 f c g 1 V @.<.=.^ o.z.m.m.i.o.^ ^ ^ S r : % # + @ o o o y s y 3 1 U / W ) V.V.V.V.V.V.V.V.V.",
"V.V.V.V.V.V.V.V.% 2 c S I C h 7 7 i a q.2.4 o v W ^ ^ #.n.m.m.g._ ^ E - f I I e 6 * * * w.9 w.B.B.M.c.1.> U ^ / V.V.V.V.V.V.V.V.",
"V.V.V.V.V.V.V.X r ^ ^ ^ T e * * 5 w.{ B.B.B.x.s 1 ^ ^ X.4. .5.*.( ^ : I ^ ^ ^ I h 6 * * * * M.N.b.k.0.@.U > f ^ ^ V.V.V.V.V.V.V.",
"V.V.V.V.V.V.V.. > ^ ^ ^ I E T Z C m 8.k.d.9._ W c : : ] 7.s.5.k - w e ^ ^ ^ / ^ / ^ R T U R o./ / W / ^ / ^ c > ^ V.V.V.V.V.V.V.",
"V.V.V.V.V.V.X . % ^ ^ ^ S , d N V V N h e 8 ; S W = ) j.m.m.p.#.I X I ^ ^ W ^ ^ ^ ^ ^ ^ ^ ^ ^ ^ / / / ^ ^ ^ / Z > ^ V.V.V.V.V.V.",
"V.V.V.V.V.. . . . S ^ ^ ^ Y g 8 ; * ; ; * ; > E ( 1 | j.m.m.y.( A @ I ^ ^ A ^ / ^ ^ ^ ^ ^ ^ ^ ^ ^ ^ / W / / U Y r r : V.V.V.V.V.",
"V.V.V.V.V.I : . . ^ ^ ^ ^ ^ ^ ^ ^ I b ; ; ; 1 / / S &.n.m.z.:.^ v @ e / ^ U f ^ ^ ^ ^ ^ ^ ^ ^ ^ ^ ^ ^ ^ U c < ^ Y O w V.V.V.V.V.",
"V.V.V.V.^ ^ ^ $ . E / / W / / / W / A ; ; ; I / ^ +.y.m.m.h.@.^ d # & W ^ ^ f e I W W / / / / ^ W U Z 1 ; ; A ^ W : ^ ^ V.V.V.V.",
"V.V.V.Y ^ ^ ^ v   U W / W / / W W v * ; ; V ^ / ^ :.g.m.m.p.( ^ g & # N ^ ^ W , * ; , < e f f 1 , ; ; ; ; f / ^ ( q t.<.i.V.V.V.",
"V.V.V.f ^ ^ ^ Y   E W / / / E I d ; * e U ^ ^ ^ _ <.z.m.m.y.^ ^ V * X 1 ^ ^ ^ U , ; ; * ; ; ; ; ; ; ; ; 1 W ^ <.&.p <.<.<.V.V.V.",
"V.V.V.- ^ ^ ^ E   Q / / U 1 > ; ; e S / / ^ ^ ^ :.h.m.m.m.:.^ ^ R * # & U ^ ^ ^ Y d ; ; ; ; ; ; ; * 8 Z W ( <.<.| G <.t.<.V.V.V.",
"V.V.^ 2 U ^ ^ E   U / / / W W W R ^ ^ ^ / ^ ^ @.i.m.m.m.z.@.^ ^ / 8 * + V ^ ^ ^ / ^ Y A N g g b V Y / ) >.<.<.<.G X.<.<.<.<.V.V.",
"V.V.^ S 2 ^ ^ U   U / W / / W / ^ ^ ^ ^ ^ ^ ) i.m.m.m.m.j.o.^ ^ / I ; # 2 ^ ^ ^ ^ / ( ( ( ) _ +.@.:.<.t.<.y.p.u.0 r.t.t.t.t.V.V.",
"V.^ ^ ^ w Z ^ U   E / W / / / / ^ ^ ^ ^ ^ ( <.g.m.m.m.m.p.( ^ ^ / / d ; @ A ^ / ^ -.y.y.y.t.t.t.y.y.i.j.m.m.m.5...m.n.i.t.y.t.V.",
"V.^ ^ ^ ^ : S S   E / / / W / W ^ ^ ^ ^ ^ _ y.t.z.m.m.p.t./ ^ ^ W A V ; ; @ B / _ y.y.y.t.p.j.n.n.m.m.m.m.m.s.j n.m.m.m.z.t.y.V.",
"V./ ^ ^ ^ E > > . E ^ ^ / ^ ^ / ^ W / / Y n ,.y.y.y.y.y.#.^ ^ ^ I N d , * 8 e > P ;.y.g.m.m.m.m.m.n.m.m.l...j l.m.m.m.m.m.u.y.V.",
"V.^ / ^ ^ ^ W w . B E ^ / / / / ^ W B < : S ` @.-.-.@.O./ ^ ^ ^ ^ ^ / U 1 * I Y ' j t x  .5.6.7.6.5. .j j 5.n.m.m.m.m.m.m.j.y.V.",
"^ ^ ^ ^ ^ ^ ^ c $ c > - > > 2 > - > v Q ^ ^ ^ / / / W / ^ ^ ^ ^ ^ ^ ^ ^ Y , e ^ t.t.u.f.a.7.5.5.5.7.s.l.m.n.m.m.m.m.m.m.m.z.t.y.",
"^ ^ ^ ^ ^ ^ ^ r : / / / E Y Y W / / W / ^ ^ ^ / / ^ W / ^ ^ ^ ^ ^ ^ ^ ^ / c ; U <.<.h.m.m.m.m.m.m.m.m.m.m.m.m.m.m.m.m.m.m.n.t.<.",
"^ ^ ^ ^ ^ ^ ^ 2 2 / ^ ^ ^ ^ / W / / ^ ^ ^ E Y / W ^ / ^ ^ ^ ^ / ^ ^ ^ ^ / V ; N :.<.h.m.m.m.m.m.m.m.m.m.m.m.m.m.m.m.m.m.m.n.<.<.",
"^ ^ ^ ^ ^ ^ ^ : r / ^ / ^ ^ ^ ^ / W ^ ^ / B ; c W ^ ^ ^ U Z g f N I ^ / / I 8 Y =.<.h.m.m.m.m.m.m.m.m.m.m.m.m.m.m.m.m.m.m.z.<.<.",
"^ ^ ^ ^ ^ ^ / - l ^ W / ^ / W / / ^ ^ ^ / I ; ; 1 E W ^ f , * ; * ; I / / I d / @.<.h.m.m.m.m.m.m.m.m.m.m.m.m.m.m.m.m.m.n.j.<.<.",
"^ ^ ^ ^ ^ ^ ^ = c ^ / ^ ^ ^ / ^ W ^ ^ ^ W ^ W Y U E / W W U V g g U / ^ ^ g A / O.t.u.m.m.m.m.m.m.m.m.m.m.m.m.m.m.m.m.m.m.p.<.<.",
"^ ^ / ^ ^ ^ W = v ^ ^ ^ / ^ ^ / / W U W / W / / / / / W W / E E V h 8 d < 8 W ^ ^ ,.r.j.m.m.m.m.m.m.m.m.m.m.m.m.m.m.m.m.n.y.y.<.",
"^ ^ ^ ^ ^ W ( $ b ^ ^ / ^ ^ ^ ^ ( Z W / / ^ / W / W / / / / / / ^ ^ / E W ^ ^ ^ ^ $.<.i.m.m.m.m.m.m.m.m.m.m.m.m.m.m.m.m.h.<.<.<.",
"^ ^ ^ ^ ^ ^ W $ b ^ ^ / W / ^ ^ S U / / ( W / / W / W / / W / ( #.-.-.@.o.#.-.:.` L y.y.j.m.m.m.m.m.m.m.m.m.m.m.m.m.m.m.y.y.y.<.",
"^ / ^ ^ ^ ^ ( + Z ^ / W / / ^ W c W / W / / W / / / / / / / @.<.t.y.y.y.y.y.t.y.>.E } ,.p.m.m.m.m.m.m.m.m.m.m.m.m.m.m.z.y.y.y.#.",
"^ ^ ^ ^ ^ ^ W + S ^ ^ ^ W / / r W W / / ^ ^ ( / ^ / / ^ / >.,.y.z.m.m.m.m.z.i.y.<._ B ,.y.j.m.m.m.m.m.m.m.m.m.m.m.m.z.y.y.y.<.( ",
"^ ^ ^ ^ ^ ^ W $ Z ^ ^ ^ / / E c / / ^ ^ ^ ^ W / W / ^ / >.<.,.<.z.m.m.m.m.m.m.z.i.>.W l <.<.z.m.m.m.m.m.m.m.m.m.m.n.y.y.t.<.` ^ ",
"V.^ ^ / ^ ^ W + S ^ ^ ^ / / r W ^ ^ / / ^ ^ / / / / ^ ^ ^ W / @.t.h.m.m.m.z.m.m.z.<.>.S } <.y.g.z.n.n.n.z.n.z.j.g.y.y.<.:.( ^ V.",
"V.^ ^ ^ ^ ( W + S ^ ^ ^ W E c / ^ / / W W v = = c 2 = = c E / ^ +.t.p.z.m.m.m.m.m.j.<.+.1 ;.<.<.<.<.<.y.<.,.<.<.>.#.+.( W ^ ^ V.",
"V./ ^ ^ ^ ^ ^ + S ^ ^ ^ ^ S U ^ ^ ^ / b + . . . . . . . . X 2 S ^ ) <.y.g.m.m.m.m.m.j.>.E D <.<.<.<.<.,.) E W W / / / / ) +./ V.",
"V./ ^ ^ ^ / ( + S W ^ ^ W b W ^ ^ ^ 2 X w l 2 > +   . . . . . . # N W O.<.p.g.m.m.m.m.y.@.c ;.,.<.y.<.` / E E ^ / / +.<.<.,.y.V.",
"V.V./ ^ ^ ^ ^ $ S W ^ ^ / S W ^ ^ Z . S ^ ^ / / W Y ! $.J f =   . . $ B W @.<.i.n.m.m.i.<.E v ` ` +./ ^ W E E ^ W / >.<.<.<.V.V.",
"V.V./ ^ ( ^ ^ $ S ^ ^ ^ / Q ^ ^ E + r ^ E S E E E E #.j.m.z.p.! 1 X . . : E ^ =.<.p.z.<.<.( l ^ / ( ^ W / Y U ^ / / ,.j.m.j.V.V.",
"V.V.V./ W ^ ^ = B ^ ^ ^ ^ ^ ^ ^ 2 $ W ^ W U V B v $ : c H K ~ Q E S = . . O A ^ +.y.y.y.y.) v ^ <.y.<.( ^ E S ^ / +.p.m.m.V.V.V.",
"V.V.V./ / ^ / = b ^ ^ ^ ^ ^ ^ Z . B ^ ^ ^ ^ ^ ^ E O . . . . . . . . . O 2 O . c / @.<.y.,./ S ~ y.,.y.` ^ E A ^ ^ >.g.m.m.V.V.V.",
"V.V.V./ ^ ^ / > c Q ^ ^ ^ ^ B + = W ^ ^ ^ ^ ^ ^ Q r r - . . . . : b E W ^ E c O 2 W ) +.) ^ E X.y.y.y.` ^ ^ Z ^ >.y.m.m.m.V.V.V.",
"V.V.V.V.^ ^ ^ c = B W / / W 2 2 U ^ ^ / ^ ^ ^ ^ ^ ^ ^ ^ E S U W ^ ^ ^ ^ ^ / ^ E - = E W ^ ^ ~ ,.y.y.y.( ^ E Z #.y.j.m.m.V.V.V.V.",
"V.V.V.V.V.^ ^ U . S b ^ ^ ^ ^ / ^ ^ ^ ^ ^ ^ ^ ^ ^ ^ ^ ^ ^ ^ ^ ^ ^ ^ ^ ^ ^ ^ W E ^ r $ U ^ ( *.t.y.y.+./ / U P ,.j.m.m.V.V.V.V.V.",
"V.V.V.V.V.^ ^ ^ = r c S W ^ ^ ^ ^ ^ ^ ^ ^ ^ ^ ^ ^ ^ ^ ^ ^ ^ ^ ^ ^ ^ ^ ^ ^ ^ ^ E b r b E ^ >.y.t.<.` / / / Z *.i.m.m.n.V.V.V.V.V.",
"V.V.V.V.V.V.^ / b O E Z c c ^ ^ ^ / / W ^ ^ W W ^ ^ ^ ^ ^ ^ ^ / ^ ^ W ^ ^ ^ / / ^ ^ B r U #.<.-.^ / / W ^ l <.n.n.p.V.V.V.V.V.V.",
"V.V.V.V.V.V.V./ W + c / / E S ^ ^ / / U f r f c c c c c c b U / ^ E U U W ^ W / ^ ^ ^ ^ S Z W W ^ W / / U L y.j.y.V.V.V.V.V.V.V.",
"V.V.V.V.V.V.V./ ^ c O E / ^ E ^ ^ ^ B b ^ ^ ^ ^ ^ ^ ^ ^ ^ ^ U S E W ^ U v r E / ^ ^ ^ ^ ^ ^ ^ ^ ^ ^ ^ W 2 ( <.<.:.V.V.V.V.V.V.V.",
"V.V.V.V.V.V.V.V.^ E + l / ^ ^ ^ ^ B U ^ ^ ^ ^ ^ ^ ^ ^ ^ ^ ^ ^ ^ ^ ^ ^ ^ W E f b ^ ^ ^ ^ ^ ^ ^ ^ ^ ^ E 2 E / / / V.V.V.V.V.V.V.V.",
"V.V.V.V.V.V.V.V.V./ v O E ^ ^ ( Y U ^ ^ ^ ^ ^ ^ ^ ^ ^ ^ ^ ^ ^ / ^ ^ ^ ^ W / / I r Y ^ ^ ^ ^ ^ ^ ^ Z r E ^ ^ ( V.V.V.V.V.V.V.V.V.",
"V.V.V.V.V.V.V.V.V.V.W = 2 ^ ^ W U / ^ ^ ^ ^ ^ ^ ^ ^ ^ ^ ^ ^ ^ ^ ^ ^ ) @.@.#.@.@.^ B B E ^ ^ ^ / c S ^ ^ ^ / V.V.V.V.V.V.V.V.V.V.",
"V.V.V.V.V.V.V.V.V.V.V.c . U ^ ^ ^ ^ ^ ^ ^ ^ ^ / ^ ^ ^ ^ ^ ^ ^ ^ ^ ^ >.y.y.y.y.y.:.+.^ Y ^ ^ / E v ^ ^ ^ ^ V.V.V.V.V.V.V.V.V.V.V.",
"V.V.V.V.V.V.V.V.V.V.V.V.V.2 ^ ^ ^ ^ ^ / ^ ^ ^ / ^ ^ ^ ^ ^ ^ ^ ^ ^ ^ <.y.y.y.g.p.y.t.:.@.( ^ / Q b ^ ^ V.V.V.V.V.V.V.V.V.V.V.V.V.",
"V.V.V.V.V.V.V.V.V.V.V.V.V.V.E ^ ^ ^ ^ ^ ^ ^ ^ ^ ^ ^ ^ ^ ^ ^ ^ ^ ^ @.y.y.j.m.m.n.m.z.y.y.t.+.^ Y Z ^ V.V.V.V.V.V.V.V.V.V.V.V.V.V.",
"V.V.V.V.V.V.V.V.V.V.V.V.V.V.V.V./ ^ ^ ^ ^ ^ ^ ^ ^ ^ ^ ^ ^ ^ ^ ^ ( ,.<.g.m.m.m.m.m.m.j.t.t.#.^ c V.V.V.V.V.V.V.V.V.V.V.V.V.V.V.V.",
"V.V.V.V.V.V.V.V.V.V.V.V.V.V.V.V.V.^ ^ ^ ^ ^ ^ ^ ^ ^ ^ ^ ^ ^ ^ ^ -.>.y.n.m.m.m.m.m.m.n.<.<._ U V.V.V.V.V.V.V.V.V.V.V.V.V.V.V.V.V.",
"V.V.V.V.V.V.V.V.V.V.V.V.V.V.V.V.V.V.V.V.^ ^ / ^ ^ ^ ^ ^ ^ ^ ^ ^ <.<.g.n.m.m.m.m.m.m.h.t.V.V.V.V.V.V.V.V.V.V.V.V.V.V.V.V.V.V.V.V.",
"V.V.V.V.V.V.V.V.V.V.V.V.V.V.V.V.V.V.V.V.V.V.^ ^ ^ ^ ^ ^ ^ ^ ^ / >.<.y.j.n.n.n.m.n.n.V.V.V.V.V.V.V.V.V.V.V.V.V.V.V.V.V.V.V.V.V.V.",
"V.V.V.V.V.V.V.V.V.V.V.V.V.V.V.V.V.V.V.V.V.V.V.V.V.V.^ ^ ^ ^ ^ / #.t.y.y.p.h.V.V.V.V.V.V.V.V.V.V.V.V.V.V.V.V.V.V.V.V.V.V.V.V.V.V."
};
