/* XPM */
static char *result[] = {
/* columns rows colors chars-per-pixel */
"32 32 100 2 ",
"   c #864C35",
".  c #884E36",
"X  c #8F5437",
"o  c #975A39",
"O  c #9F5A3A",
"+  c #A05C3A",
"@  c #A95B3B",
"#  c #9E613A",
"$  c #A3643B",
"%  c #AC623D",
"&  c #AB6B3D",
"*  c #B1673E",
"=  c #B46B3F",
"-  c #B4733F",
";  c #B46942",
":  c #B96E40",
">  c #B67240",
",  c #BB7541",
"<  c #B57846",
"1  c #BD7A42",
"2  c #BC7E56",
"3  c #BA7E67",
"4  c #C37D43",
"5  c #C97E44",
"6  c #BE836A",
"7  c #BF8E72",
"8  c #C78144",
"9  c #CC8546",
"0  c #C2814B",
"q  c #CE8948",
"w  c #D18546",
"e  c #D28A47",
"r  c #D58B49",
"t  c #DA8E49",
"y  c #DD924A",
"u  c #D79355",
"i  c #DD9651",
"p  c #DD9955",
"a  c #DD9D5C",
"s  c #E2964B",
"d  c #E5994D",
"f  c #EA9C4D",
"g  c #E09550",
"h  c #E49C53",
"j  c #EFA04F",
"k  c #F1A24F",
"l  c #EFA052",
"z  c #F6A651",
"x  c #F6A955",
"c  c #F7AC5B",
"v  c #F8AC5A",
"b  c #C99561",
"n  c #D39E66",
"m  c #D29F68",
"M  c #DB9D6F",
"N  c #D2A069",
"B  c #DAA76E",
"V  c #D9AF79",
"C  c #EDAB62",
"Z  c #E1AA6B",
"A  c #F3AD61",
"S  c #F7B164",
"D  c #F8B264",
"F  c #F3B46C",
"G  c #F8B66B",
"H  c #F9B96F",
"J  c #E0A376",
"K  c #E3B277",
"L  c #F9BC74",
"P  c #F1BD7B",
"I  c #FABF78",
"U  c #FAC27D",
"Y  c #D1B284",
"T  c #D9BC8B",
"R  c #D5B09C",
"E  c #E7BA80",
"W  c #E5B38F",
"Q  c #D8BBAA",
"!  c #DEC18F",
"~  c #F7C481",
"^  c #FAC681",
"/  c #FBC985",
"(  c #F2C98C",
")  c #FBCC8A",
"_  c #FBD08F",
"`  c #E6CA96",
"'  c #EEC990",
"]  c #EACE99",
"[  c #EED39D",
"{  c #FBD393",
"}  c #F1D79F",
"|  c #FBD799",
" . c #FCDA9D",
".. c #F5DBA3",
"X. c #FDDEA2",
"o. c #FDE1A6",
"O. c #FDE3A9",
"+. c #F1D3C0",
"@. c #FAD9C1",
"#. c None",
/* pixels */
"#.#.#.#.#.#.#.#.#.#.#.#.z z z x I I c z #.#.#.#.#.#.#.#.#.#.#.#.",
"#.#.#.#.#.#.#.#.#.X.) H z z z z z z z D / { o.#.#.#.#.#.#.#.#.#.",
"#.#.#.#.#.#.#.O.O.O.O.| G x U L z z G  .o.o.O.O.O.#.#.#.#.#.#.#.",
"#.#.#.#.#.#./ I L ^ |  .I x  .{ z z I { L x S L U { #.#.#.#.#.#.",
"#.#.#.#.#.s y 9 5 9 u F I x X.| v z s e 4 % ; 2 0 d D #.#.#.#.#.",
"#.#.#.#.8 d r ; 6 R Q 7 f A ` ' x 9 d y ; @ 3 +.@.W 9 f #.#.#.#.",
"#.#.#.  e z t w e J M g 4 B } K > d z z z j j x z z z e d #.#.#.",
"#.#.9 X 1 z z y w ; % r s ( O.G > d f f z z z z z z f s 1 , #.#.",
"#.#.z t 4 z z z j = - k S | X.v * 4 z 5 9 r y y w : * f r G #.#.",
"#.1 z k 4 x d 9 = w k z U O.{ z 5 O z z 4 @ ; @ @ , f I m ^ U #.",
"#.s d j - z z z z z z G X.O./ z s O s z z f s h A G U / N ^ ^ #.",
"#.z 9 d 8 z z z z z z / X.X.L z f , ; j G / / { | X.O.T } X.) #.",
"z z z 8 - z z z z s e L U I x z f t * 9 m V ` [ ] ! Y ] O.O. ./ ",
"z z z y 8 e q r r f z z z k z z z z t e ^ | [ ] [ ..O.O.O.O.O.^ ",
"z z z t y z z z z z f t z z f y f z f 5 I X.O.O.O.O.O.O.O.O.o.U ",
"z z z r y z z z z z k w s z r 4 4 k d d L  .O.O.O.O.O.O.O.O. .U ",
"z z z q y z z z j k z z z z z k s t t z F / O.O.O.O.O.O.O.O.{ U ",
"z z z q j z z z y z z z z z z S I I I E C U  .O.O.O.O.O.O.o./ U ",
"z z z 8 d z z y z z z z z z L U X.O.O.| U p ) o.O.O.O.O.O.) ^ F ",
"z z z 8 j z z y z z j e y r j v ^ X.O.O.| F B / { { { { U L c z ",
"#.z z q d z d k z 8 $ #       & y H { X.O.{ p U U U z z z D L #.",
"#.z z q j z j z y 9 j j j U K b o $ h I | { H i c z j l z / _ #.",
"#.z z r d z z k & z z d - $ < 0 , X o 9 G ^ H h U L l f S  .O.#.",
"#.#.z y 9 z z - y z z z f y - 4 y z z q 1 x x C / L z l / O.#.#.",
"#.#.z z - y z z z z z z z z z z z z z j e e c ^ U z j P o.o.#.#.",
"#.#.#.z 1 y y j z k s y s s d k z j z z z y l D z z i { _ #.#.#.",
"#.#.#.#.f 1 z z k s z z z z z j j j y y z z z z z s d G #.#.#.#.",
"#.#.#.#.#.> f z k z z z z z z z z c S c y l z z y j z #.#.#.#.#.",
"#.#.#.#.#.#.> z z z z z z z z z z U / _ U A z k d z #.#.#.#.#.#.",
"#.#.#.#.#.#.#.z z z z z z z z z D ) o.O.o.) I f d #.#.#.#.#.#.#.",
"#.#.#.#.#.#.#.#.#.x z z z z z z U | O.O.O.{ H #.#.#.#.#.#.#.#.#.",
"#.#.#.#.#.#.#.#.#.#.#.#.z z z z U )  .O.#.#.#.#.#.#.#.#.#.#.#.#."
};
